<?xml version="1.0" encoding="utf-8"?>
<!-- Generator: Adobe Illustrator 26.1.0, SVG Export Plug-In . SVG Version: 6.00 Build 0)  -->
<svg version="1.1" id="Layer_1" xmlns="http://www.w3.org/2000/svg" xmlns:xlink="http://www.w3.org/1999/xlink" x="0px" y="0px"
	 viewBox="0 0 1045.5 1019.3" style="enable-background:new 0 0 1045.5 1019.3;" xml:space="preserve">
<style type="text/css">
	.st0{fill:#FFFFFF;}
</style>
<g id="a">
</g>
<g id="b">
	<g id="c">
		<g>
			<path class="st0" d="M372,454.4c-4.4-13.5-8.3-26.6-12.6-40.1c-4.4-13.5-8.3-26.1-11.8-38.8c-3.5-12.2-6.5-23.5-9.6-34h-0.9
				c-3.9,18.7-8.7,37.5-14.8,56.2c-6.5,20.9-13.1,42.7-20,64.5c-5.7,22.2-12.6,42.7-19.2,61h110.6c-2.6-9.2-6.1-20-10-31.4
				C379.8,480.1,375.9,467.4,372,454.4L372,454.4z"/>
			<path class="st0" d="M745.8,441.7c-24-1.3-46.6,11.3-57.9,33.1c-5.2,10-8.3,20.5-9.6,31.4h91.9c11.3,0,19.6,0,24.8-0.4
				c3.5-0.4,7-1.3,10-3.5v-4.4c0-5.7-0.9-10.9-2.6-16.1C794.6,457.4,771.5,440.9,745.8,441.7L745.8,441.7z"/>
			<path class="st0" d="M860.3,0H185.1C82.8,0,0,82.8,0,185.1v649.1c0,102.4,82.8,185.1,185.1,185.1h675.2
				c102.4,0,185.1-82.8,185.1-185.1V185.1C1045.5,82.8,962.7,0,860.3,0z M553.7,719.2h-91c-3,0.4-6.1-1.7-7-4.8l-35.7-104.5h-162
				l-33.1,102.8c-0.9,3.9-4.4,6.5-8.3,6.1h-81.9c-4.8,0-6.1-2.6-4.8-7.8l140.3-402.1c1.3-4.4,2.6-8.3,4.4-13.5
				c1.7-9.1,2.6-18.7,2.6-28.3c-0.4-2.2,1.3-4.4,3.5-4.8h112.8c3,0,5.2,1.3,5.7,3.5l159,446.5C559.3,717,558,719.2,553.7,719.2
				L553.7,719.2z M895.6,545.4c-0.9,8.3-1.3,14.4-1.7,18.3c-0.4,3-3,5.7-6.1,5.7c-2.6,0-7.4,0.4-14.4,0.9c-7,0.9-15.2,1.3-25.3,1.3
				s-20.5-1.7-31.8-1.7H678.3c1.7,13.5,6.1,27,13.5,38.8c7.8,11.8,18.7,20.9,31.8,26.1c17.4,7.4,36.6,11.3,55.8,10.9
				c15.2-0.4,30.5-1.7,45.3-4.8c13.5-1.7,26.6-5.2,38.8-10c2.2-1.7,3.5-0.9,3.5,3.5v66.7c0,1.7-0.4,3.5-0.9,5.2
				c-0.9,1.3-1.7,2.2-3,3c-13.9,6.1-28.3,10.5-43.6,13.1c-20.5,3.9-41,5.7-61.8,5.2c-33.1,0-61-5.2-83.6-15.2
				c-21.3-9.2-40.1-23.5-54.9-41.4c-13.9-17-24-36.2-30.1-57.1c-6.1-20.5-9.2-41.8-9.2-63.6c0-23.5,3.5-46.6,10.9-69.3
				c7-21.8,17.9-41.8,32.7-59.7c14.4-17.4,32.2-31.4,52.7-41.4c20.5-10,44.9-13.5,72.8-13.5c23.1-0.4,46.2,3.9,67.5,13.5
				c17.9,7.8,33.5,19.6,45.7,34.8c11.3,14.8,20.5,31.4,26.1,49.7c5.7,17.4,8.3,35.3,8.3,53.2C896.5,528,896.1,537.1,895.6,545.4
				L895.6,545.4z"/>
		</g>
	</g>
</g>
</svg>
