<svg width="260" height="85" viewBox="0 0 260 85" fill="none" xmlns="http://www.w3.org/2000/svg">
<ellipse cx="129.602" cy="42.4947" rx="126.951" ry="29.5782" transform="rotate(-4.42603 129.602 42.4947)" fill="#141518"/>
<path d="M35.3918 43.2321C35.1598 42.7078 35.1425 42.2786 35.3399 41.9443C35.552 41.593 35.9433 41.3952 36.5141 41.3511L38.7256 41.1799C39.6451 41.1087 40.2575 41.4999 40.5628 42.3534L43.2004 49.5413C43.3018 49.8206 43.4056 50.1315 43.5118 50.4741C43.6169 50.8009 43.7128 51.1125 43.7995 51.4088C43.8899 51.7526 43.9797 52.0886 44.0689 52.4166L44.1164 52.4129C44.1541 52.0751 44.1911 51.7293 44.2275 51.3756C44.2676 51.0695 44.3065 50.7475 44.3441 50.4097C44.3964 50.0548 44.4591 49.731 44.5321 49.4383L46.056 41.9282C46.2422 41.0367 46.795 40.5553 47.7145 40.4841L49.8309 40.3203C50.4016 40.2761 50.8108 40.4119 51.0586 40.7277C51.3209 41.0263 51.3778 41.4525 51.2293 42.0063L47.4678 56.4596C47.2304 57.3073 46.6678 57.7655 45.78 57.8342L43.2356 58.0311C42.3478 58.0998 41.7214 57.7337 41.3563 56.9326L35.3918 43.2321ZM52.7011 41.6531C52.6213 40.6226 53.1046 40.0669 54.1509 39.9859L62.1172 39.3693C63.1477 39.2895 63.7028 39.7649 63.7826 40.7954L63.8746 41.9844C63.9544 43.0148 63.479 43.57 62.4485 43.6497L57.9303 43.9994L58.0905 46.0683L61.3246 45.818C62.3709 45.737 62.9339 46.2117 63.0137 47.2422L63.1057 48.4312C63.1855 49.4617 62.7022 50.0174 61.6559 50.0984L58.4218 50.3487L58.5911 52.5365L63.3947 52.1647C64.441 52.0837 65.0041 52.5584 65.0838 53.5889L65.1759 54.7779C65.2556 55.8084 64.7723 56.3641 63.726 56.4451L55.4743 57.0838C54.428 57.1648 53.865 56.6901 53.7852 55.6596L52.7011 41.6531ZM65.9148 40.6303C65.835 39.5999 66.3183 39.0441 67.3646 38.9631L72.0018 38.6042C72.7944 38.5429 73.4627 38.523 74.0066 38.5447C74.5652 38.5493 75.0396 38.6003 75.4299 38.6977C75.9178 38.8194 76.3801 39.0229 76.8168 39.308C77.2536 39.5932 77.6397 39.9461 77.9753 40.3666C78.3109 40.7872 78.5794 41.2688 78.7809 41.8114C78.9982 42.3528 79.1314 42.9405 79.1805 43.5747C79.2136 44.0027 79.2004 44.4503 79.1409 44.9174C79.0814 45.3845 78.973 45.8395 78.8159 46.2822C78.6588 46.725 78.4438 47.1403 78.1708 47.5283C77.8978 47.9162 77.565 48.253 77.1725 48.5385L77.1761 48.5861C77.2628 48.6751 77.35 48.772 77.4379 48.8768C77.5245 48.9658 77.6124 49.0707 77.7014 49.1913C77.8064 49.3108 77.9132 49.4541 78.0218 49.6211L80.4565 53.2602C80.836 53.8369 80.9198 54.3009 80.7078 54.6522C80.4945 54.9877 80.1025 55.1775 79.5318 55.2217L77.3202 55.3929C76.9556 55.4211 76.6086 55.3682 76.2793 55.2342C75.9499 55.1002 75.6584 54.8357 75.4045 54.4407L72.9166 50.4229L71.7276 50.515L72.0165 54.2484C72.0963 55.2789 71.6209 55.834 70.5905 55.9138L68.6881 56.061C67.6417 56.142 67.0787 55.6673 66.9989 54.6368L65.9148 40.6303ZM72.4663 46.1517C73.0688 46.1051 73.5022 45.936 73.7667 45.6444C74.0459 45.3357 74.1603 44.8564 74.11 44.2064C74.0928 43.9844 74.0354 43.7576 73.9377 43.526C73.84 43.2943 73.6113 43.1206 73.2514 43.0049C73.0551 42.9404 72.8453 42.9088 72.6221 42.9101C72.4136 42.8944 72.1745 42.8969 71.905 42.9178L71.1441 42.9767L71.3962 46.2345L72.4663 46.1517ZM85.037 47.858L79.8252 39.8646C79.4664 39.3501 79.3765 38.9105 79.5556 38.5458C79.7506 38.1799 80.1493 37.9736 80.7517 37.9269L83.0822 37.7466C83.9224 37.6815 84.5549 38.0233 84.9796 38.7719L86.0819 40.9592C86.2333 41.2665 86.3774 41.5823 86.5141 41.9066C86.6667 42.2297 86.7931 42.5229 86.8932 42.7863C87.0128 43.096 87.124 43.3984 87.2266 43.6935L87.2741 43.6898C87.3301 43.3825 87.3933 43.0666 87.4639 42.7421C87.5223 42.4665 87.5941 42.1579 87.6793 41.8164C87.7804 41.4737 87.8821 41.1389 87.9843 40.812L88.7369 38.4811C89.0255 37.6773 89.59 37.2428 90.4302 37.1778L92.7607 36.9974C93.3631 36.9508 93.7809 37.0939 94.0139 37.4267C94.2629 37.7583 94.2497 38.2059 93.9743 38.7694L90.0546 47.4697L90.4688 52.8202C90.5485 53.8506 90.0732 54.4058 89.0427 54.4855L87.1165 54.6346C86.0861 54.7144 85.5309 54.239 85.4512 53.2086L85.037 47.858ZM101.492 37.8766C101.412 36.8461 101.896 36.2904 102.942 36.2094L110.908 35.5927C111.939 35.513 112.494 35.9883 112.574 37.0188L112.666 38.2078C112.745 39.2383 112.27 39.7934 111.24 39.8732L106.721 40.2229L106.881 42.2918L110.116 42.0414C111.162 41.9604 111.725 42.4352 111.805 43.4657L111.897 44.6547C111.976 45.6851 111.493 46.2409 110.447 46.3218L107.213 46.5722L107.382 48.7599L112.186 48.3881C113.232 48.3071 113.795 48.7819 113.875 49.8124L113.967 51.0014C114.047 52.0318 113.563 52.5876 112.517 52.6685L104.265 53.3073C103.219 53.3882 102.656 52.9135 102.576 51.883L101.492 37.8766ZM114.706 36.8538C114.626 35.8233 115.109 35.2676 116.156 35.1866L120.84 34.824C122.204 34.7184 123.447 34.8136 124.57 35.1094C125.71 35.404 126.688 35.8865 127.505 36.5568C128.339 37.2259 129.002 38.0756 129.497 39.1059C130.006 40.1191 130.312 41.2995 130.417 42.647C130.52 43.9787 130.399 45.1922 130.053 46.2875C129.723 47.3816 129.198 48.3312 128.479 49.1365C127.774 49.9246 126.883 50.5598 125.804 51.0421C124.74 51.5231 123.527 51.8163 122.164 51.9219L117.479 52.2845C116.433 52.3655 115.87 51.8907 115.79 50.8602L114.706 36.8538ZM121.666 47.6543C122.903 47.5586 123.834 47.1277 124.461 46.3615C125.086 45.5795 125.343 44.4751 125.233 43.0483C125.122 41.6215 124.683 40.5869 123.916 39.9446C123.164 39.301 122.194 39.0252 121.005 39.1173L119.935 39.2001L120.596 47.7372L121.666 47.6543ZM131.655 35.5419C131.575 34.5114 132.051 33.9563 133.081 33.8765L135.007 33.7274C136.038 33.6477 136.593 34.123 136.673 35.1535L137.381 44.3088C137.437 45.0222 137.684 45.5374 138.123 45.8542C138.578 46.1699 139.162 46.3001 139.876 46.2449C140.589 46.1896 141.147 45.979 141.549 45.613C141.95 45.231 142.123 44.6834 142.068 43.97L141.357 34.7909C141.278 33.7604 141.753 33.2053 142.783 33.1255L144.686 32.9783C145.716 32.8985 146.271 33.3739 146.351 34.4043L147.06 43.5597C147.135 44.5267 147.03 45.4359 146.745 46.2873C146.458 47.1228 146.022 47.8664 145.434 48.5179C144.845 49.1535 144.112 49.6728 143.234 50.0757C142.356 50.4785 141.362 50.7229 140.253 50.8088C139.127 50.8959 138.1 50.808 137.17 50.545C136.241 50.282 135.428 49.8824 134.733 49.3462C134.052 48.7928 133.506 48.1254 133.095 47.3438C132.682 46.5465 132.439 45.6642 132.364 44.6972L131.655 35.5419ZM148.624 41.2616C148.528 40.0251 148.661 38.8506 149.021 37.7382C149.382 36.6258 149.927 35.6426 150.659 34.7886C151.406 33.9333 152.317 33.2408 153.393 32.711C154.483 32.1642 155.701 31.8386 157.049 31.7343C158.301 31.6373 159.384 31.721 160.298 31.9852C161.227 32.2481 161.984 32.5405 162.567 32.8621C162.985 33.1168 163.233 33.4326 163.31 33.8094C163.386 34.1703 163.305 34.5673 163.067 35.0004L162.446 36.2446C162.003 37.1241 161.31 37.3293 160.364 36.8602C159.935 36.6702 159.485 36.5216 159.014 36.4145C158.558 36.2903 158.1 36.246 157.64 36.2816C156.847 36.343 156.191 36.5214 155.672 36.8167C155.167 37.095 154.764 37.4452 154.461 37.8673C154.175 38.2882 153.98 38.7499 153.875 39.2524C153.786 39.7537 153.761 40.25 153.799 40.7415C153.838 41.2488 153.949 41.7585 154.132 42.2706C154.332 42.7815 154.614 43.2381 154.98 43.6404C155.345 44.0268 155.799 44.3345 156.343 44.5635C156.887 44.7925 157.532 44.8782 158.277 44.8205C158.816 44.7788 159.332 44.6432 159.824 44.4137C160.332 44.1671 160.78 43.8852 161.17 43.5679C161.576 43.2494 161.963 43.0919 162.33 43.0954C162.697 43.0989 163.04 43.3036 163.358 43.7095L164.279 44.7866C164.579 45.162 164.728 45.5412 164.726 45.9242C164.724 46.3071 164.535 46.6566 164.161 46.9726C163.893 47.2167 163.57 47.4729 163.192 47.7414C162.814 48.0099 162.387 48.2583 161.91 48.4866C161.433 48.7148 160.898 48.9078 160.304 49.0654C159.727 49.2376 159.09 49.3507 158.393 49.4047C156.998 49.5127 155.72 49.3883 154.56 49.0315C153.4 48.6748 152.394 48.1386 151.541 47.4232C150.703 46.6906 150.028 45.8019 149.517 44.757C149.02 43.695 148.722 42.5299 148.624 41.2616ZM168.901 32.3719C169.121 31.5096 169.675 31.044 170.563 30.9753L173.155 30.7747C174.043 30.706 174.662 31.0807 175.012 31.8988L180.737 45.5939C180.969 46.1182 180.979 46.556 180.767 46.9074C180.554 47.2428 180.17 47.432 179.615 47.475L177.689 47.6241C176.801 47.6928 176.18 47.3022 175.828 46.4524L175.342 44.8154L170.515 45.189L170.287 46.8813C170.117 47.7716 169.58 48.2517 168.676 48.3217L166.75 48.4708C166.195 48.5137 165.786 48.3859 165.524 48.0872C165.26 47.7727 165.203 47.3386 165.351 46.7848L168.901 32.3719ZM173.893 40.9325L173.186 38.595C173.085 38.3157 172.98 37.9969 172.873 37.6384C172.764 37.264 172.658 36.9214 172.554 36.6105C172.445 36.2361 172.337 35.8618 172.228 35.4874L172.18 35.4911C172.13 35.8777 172.081 36.2643 172.031 36.651C171.976 36.9742 171.924 37.3291 171.874 37.7157C171.839 38.0852 171.793 38.4157 171.735 38.7072L171.349 41.1294L173.893 40.9325ZM183.581 34.2738L180.251 34.5315C179.221 34.6112 178.666 34.1359 178.586 33.1054L178.494 31.9164C178.414 30.8859 178.89 30.3308 179.92 30.251L191.596 29.3473C192.627 29.2675 193.182 29.7429 193.261 30.7733L193.354 31.9623C193.433 32.9928 192.958 33.5479 191.927 33.6277L188.598 33.8854L189.471 45.1572C189.55 46.1876 189.075 46.7427 188.045 46.8225L186.118 46.9716C185.088 47.0514 184.533 46.576 184.453 45.5455L183.581 34.2738ZM194.685 30.6632C194.605 29.6327 195.088 29.077 196.135 28.996L204.101 28.3794C205.132 28.2996 205.687 28.775 205.766 29.8054L205.858 30.9944C205.938 32.0249 205.463 32.58 204.432 32.6598L199.914 33.0095L200.074 35.0784L203.308 34.828C204.355 34.7471 204.918 35.2218 204.998 36.2523L205.09 37.4413C205.169 38.4717 204.686 39.0275 203.64 39.1085L200.406 39.3588L200.575 41.5466L205.379 41.1747C206.425 41.0938 206.988 41.5685 207.068 42.599L207.16 43.788C207.24 44.8184 206.756 45.3742 205.71 45.4552L197.458 46.0939C196.412 46.1749 195.849 45.7001 195.769 44.6696L194.685 30.6632ZM207.899 29.6404C207.819 28.6099 208.302 28.0542 209.349 27.9732L214.033 27.6106C215.397 27.5051 216.64 27.6002 217.763 27.896C218.902 28.1906 219.881 28.6731 220.698 29.3434C221.531 30.0125 222.195 30.8623 222.69 31.8925C223.199 32.9057 223.505 34.0861 223.61 35.4336C223.713 36.7653 223.591 37.9788 223.246 39.0741C222.916 40.1682 222.391 41.1179 221.672 41.9231C220.967 42.7112 220.076 43.3464 218.997 43.8287C217.933 44.3097 216.72 44.6029 215.357 44.7085L210.672 45.0711C209.626 45.1521 209.063 44.6773 208.983 43.6469L207.899 29.6404ZM214.859 40.4409C216.095 40.3452 217.027 39.9143 217.653 39.1481C218.279 38.3661 218.536 37.2617 218.426 35.8349C218.315 34.4081 217.876 33.3735 217.109 32.7312C216.357 32.0876 215.387 31.8119 214.198 31.9039L213.128 31.9867L213.789 40.5238L214.859 40.4409ZM227.309 38.1854C226.311 38.2627 225.748 37.7959 225.622 36.785L224.59 28.3963C224.523 27.939 224.612 27.5493 224.858 27.2272C225.105 26.9051 225.481 26.7245 225.989 26.6852L227.986 26.5306C228.446 26.495 228.829 26.6009 229.135 26.8483C229.457 27.0945 229.623 27.4804 229.631 28.0061L229.926 36.4518C229.957 37.4701 229.473 38.0179 228.475 38.0952L227.309 38.1854ZM225.922 41.2831C225.843 40.2526 226.318 39.6975 227.348 39.6177L228.633 39.5184C229.679 39.4374 230.242 39.9121 230.322 40.9426L230.403 41.9889C230.483 43.0194 229.999 43.5751 228.953 43.6561L227.669 43.7555C226.638 43.8352 226.083 43.3599 226.003 42.3294L225.922 41.2831Z" fill="white"/>
</svg>
