<?xml version="1.0" encoding="utf-8"?>
<!-- Generator: Adobe Illustrator 26.1.0, SVG Export Plug-In . SVG Version: 6.00 Build 0)  -->
<svg version="1.1" id="Layer_1" xmlns="http://www.w3.org/2000/svg" xmlns:xlink="http://www.w3.org/1999/xlink" x="0px" y="0px"
	 viewBox="0 0 240 234" style="enable-background:new 0 0 240 234;" xml:space="preserve">
<style type="text/css">
	.st0{fill:#FFFFFF;}
</style>
<desc>Created using Figma</desc>
<path class="st0" d="M187.3,87.1c-3-3-6.4-5.5-10.1-7.5c3.7-2,7.1-4.5,10.1-7.5c3.9-3.9,6.9-8.4,9.1-13.4c2.2-5.2,3.3-10.8,3.3-16.5
	s-1.1-11.2-3.3-16.5c-2.1-5-5.2-9.6-9.1-13.4c-3.9-3.9-8.4-6.9-13.4-9.1C168.6,1.1,163.1,0,157.4,0h-32.5h-9.8H82.6
	c-5.7,0-11.2,1.1-16.5,3.3c-5,2.1-9.6,5.2-13.4,9.1s-6.9,8.4-9.1,13.4c-2.2,5.2-3.3,10.8-3.3,16.5s1.1,11.2,3.3,16.5
	c2.1,5,5.2,9.6,9.1,13.4c3,3,6.4,5.5,10.1,7.5c-3.7,2-7.1,4.5-10.1,7.5c-3.9,3.9-6.9,8.4-9.1,13.4c-2.2,5.2-3.3,10.8-3.3,16.5
	s1.1,11.2,3.3,16.5c2.1,5,5.2,9.6,9.1,13.4c3,3,6.4,5.5,10.1,7.5c-3.7,2-7.1,4.5-10.1,7.5c-3.9,3.9-6.9,8.4-9.1,13.4
	c-2.2,5.2-3.3,10.8-3.3,16.5s1.1,11.2,3.3,16.5c2.1,5,5.2,9.6,9.1,13.4c3.9,3.9,8.4,6.9,13.4,9.1c5.2,2.2,10.8,3.3,16.5,3.3
	s11.2-1.1,16.5-3.3c5-2.1,9.6-5.2,13.4-9.1c3.9-3.9,6.9-8.4,9.1-13.4c2.2-5.2,3.3-10.8,3.3-16.5v-32.5v-9.8v-5.3
	c0.8,1,1.7,1.9,2.5,2.8c3.9,3.9,8.4,6.9,13.4,9.1c5.2,2.2,10.8,3.3,16.5,3.3s11.2-1.1,16.5-3.3c5-2.1,9.6-5.2,13.4-9.1
	c3.9-3.9,6.9-8.4,9.1-13.4c2.2-5.2,3.3-10.8,3.3-16.5s-1.1-11.2-3.3-16.5C194.2,95.6,191.2,91,187.3,87.1z M124.9,9.8h32.5
	c17.9,0,32.5,14.6,32.5,32.5s-14.6,32.5-32.5,32.5h-32.5C124.9,74.8,124.9,9.8,124.9,9.8z M124.9,84.6h5.3c-1,0.8-1.9,1.7-2.8,2.5
	c-0.9,0.9-1.7,1.8-2.5,2.8C124.9,89.9,124.9,84.6,124.9,84.6z M50.2,42.3c0-17.9,14.6-32.5,32.5-32.5h32.5v64.9H82.6
	C64.7,74.8,50.2,60.2,50.2,42.3z M115.1,191.8c0,17.9-14.6,32.5-32.5,32.5s-32.5-14.6-32.5-32.5s14.6-32.5,32.5-32.5h32.5V191.8z
	 M82.6,149.5c-17.9,0-32.5-14.6-32.5-32.5s14.6-32.5,32.5-32.5h32.5v64.9H82.6V149.5z M157.4,149.5c-17.9,0-32.5-14.6-32.5-32.5
	s14.6-32.5,32.5-32.5s32.5,14.6,32.5,32.5C189.8,134.9,175.3,149.5,157.4,149.5z"/>
</svg>
