<svg width="190" height="91" viewBox="0 0 190 91" fill="none" xmlns="http://www.w3.org/2000/svg">
<ellipse cx="94.7796" cy="45.3247" rx="91.1262" ry="24.1549" transform="rotate(13.7943 94.7796 45.3247)" fill="#9A64CE"/>
<path d="M34.8983 23.9369C35.0996 23.1172 35.6164 22.8095 36.4487 23.0139L37.962 23.3854C38.7817 23.5867 39.0909 24.0971 38.8897 24.9168L36.1542 36.0585C35.9529 36.8782 35.4425 37.1874 34.6228 36.9862L33.1095 36.6146C32.2771 36.4103 31.9616 35.8982 32.1629 35.0785L34.8983 23.9369ZM40.9759 25.4291C41.1772 24.6093 41.6939 24.3017 42.5263 24.506L44.0395 24.8776C44.8592 25.0788 45.1685 25.5893 44.9672 26.409L42.7658 35.3753L46.8328 36.3738C47.6651 36.5781 47.9807 37.0902 47.7794 37.9099L47.5472 38.8557C47.3459 39.6754 46.8292 39.983 45.9969 39.7787L39.187 38.1068C38.3547 37.9024 38.0392 37.3904 38.2404 36.5707L40.9759 25.4291ZM51.3946 27.987C51.5958 27.1673 52.1126 26.8596 52.9449 27.064L54.4582 27.4355C55.2779 27.6368 55.5872 28.1473 55.3859 28.967L53.1845 37.9332L57.2515 38.9318C58.0838 39.1361 58.3993 39.6481 58.1981 40.4678L57.9659 41.4136C57.7646 42.2333 57.2479 42.541 56.4155 42.3367L49.6057 40.6647C48.7734 40.4604 48.4579 39.9484 48.6591 39.1287L51.3946 27.987ZM61.3857 30.44C61.587 29.6203 62.0975 29.3111 62.9172 29.5124L64.4494 29.8885C65.2691 30.0898 65.5783 30.6003 65.3771 31.42L63.589 38.7027C63.4497 39.2702 63.5099 39.7329 63.7697 40.0908C64.042 40.4519 64.462 40.7021 65.0295 40.8414C65.5969 40.9807 66.0834 40.9598 66.489 40.7785C66.8976 40.5847 67.1715 40.204 67.3109 39.6365L69.1035 32.3349C69.3048 31.5152 69.8153 31.206 70.635 31.4072L72.1483 31.7788C72.968 31.98 73.2772 32.4905 73.076 33.3102L71.2879 40.5929C71.099 41.3622 70.7854 42.0406 70.3469 42.6283C69.9116 43.2033 69.3829 43.6685 68.7608 44.0239C68.1418 44.3666 67.4404 44.5822 66.6566 44.6705C65.8727 44.7589 65.0394 44.6947 64.1567 44.4779C63.2613 44.2581 62.4867 43.9275 61.8329 43.4862C61.1791 43.0449 60.651 42.5275 60.2485 41.934C59.8617 41.3309 59.6086 40.6737 59.4891 39.9625C59.3726 39.2386 59.4088 38.492 59.5977 37.7228L61.3857 30.44ZM72.2529 45.0618C72.0567 44.8264 71.9343 44.5624 71.8858 44.2697C71.85 43.9801 72.0297 43.6565 72.425 43.2989L73.3993 42.435C73.7068 42.1629 73.9976 42.0404 74.2717 42.0676C74.5584 42.0979 74.8598 42.2588 75.176 42.5504C75.2802 42.6161 75.3909 42.7101 75.5079 42.8324C75.6376 42.9578 75.7861 43.0879 75.9536 43.2226C76.1211 43.3573 76.3106 43.4841 76.5221 43.6029C76.7336 43.7217 76.9718 43.8136 77.2366 43.8786C77.6276 43.9746 77.9063 43.9828 78.0729 43.9034C78.2426 43.8113 78.3476 43.6834 78.3878 43.5194C78.4466 43.2798 78.3512 43.0424 78.1014 42.8073C77.8642 42.5752 77.5513 42.3246 77.1628 42.0554C76.7743 41.7862 76.3589 41.4903 75.9166 41.1678C75.4774 40.8326 75.0837 40.4485 74.7354 40.0153C74.3872 39.5822 74.1268 39.0904 73.9544 38.54C73.7977 37.9801 73.8092 37.3344 73.9888 36.6029C74.1498 35.9472 74.4214 35.3854 74.8037 34.9177C75.189 34.4374 75.6551 34.0638 76.202 33.7969C76.7489 33.53 77.356 33.3716 78.0235 33.3215C78.6941 33.2588 79.3888 33.3158 80.1076 33.4922C80.4985 33.5882 80.8754 33.7142 81.2382 33.8701C81.6042 34.0134 81.9387 34.1758 82.2418 34.3572C82.548 34.526 82.8181 34.7059 83.0519 34.897C83.3015 35.0787 83.5006 35.2479 83.6493 35.4047C83.9184 35.7248 84.0425 36.0361 84.0217 36.3385C84.0041 36.6284 83.873 36.9171 83.6286 37.2047L82.8153 38.1483C82.646 38.3474 82.4797 38.4804 82.3162 38.5472C82.1653 38.6171 82.0174 38.6477 81.8725 38.6388C81.7307 38.6174 81.584 38.5613 81.4325 38.4706C81.2935 38.383 81.1577 38.2828 81.0249 38.17C80.7216 37.9351 80.4341 37.7174 80.1624 37.517C79.9033 37.3197 79.572 37.1715 79.1684 37.0724C78.7901 36.9795 78.5098 36.9775 78.3275 37.0665C78.1483 37.1428 78.037 37.2693 77.9937 37.4458C77.9287 37.7107 78.0147 37.9591 78.2519 38.1912C78.5017 38.4263 78.8209 38.6785 79.2094 38.9477C79.601 39.2043 80.018 39.4939 80.4602 39.8164C80.9182 40.1294 81.3229 40.4962 81.6743 40.9167C82.0256 41.3372 82.2812 41.8212 82.441 42.3685C82.6134 42.9189 82.6098 43.5598 82.4302 44.2913C82.2847 44.884 82.0334 45.4173 81.6764 45.8912C81.332 46.3682 80.8958 46.7559 80.368 47.0542C79.8527 47.3555 79.2568 47.5502 78.58 47.6381C77.9032 47.7259 77.1613 47.6708 76.3542 47.4727C75.8876 47.3581 75.4382 47.201 75.0059 47.0012C74.583 46.8172 74.1917 46.6141 73.8317 46.392C73.4717 46.1699 73.1527 45.9445 72.8746 45.7158C72.6121 45.4776 72.4049 45.2595 72.2529 45.0618ZM88.2813 39.3499L85.633 38.6997C84.8133 38.4984 84.5041 37.988 84.7054 37.1682L84.9376 36.2224C85.1388 35.4027 85.6493 35.0935 86.469 35.2948L95.7569 37.5751C96.5766 37.7764 96.8858 38.2868 96.6845 39.1065L96.4523 40.0523C96.2511 40.872 95.7406 41.1813 94.9209 40.98L92.2726 40.3298L90.0712 49.2961C89.87 50.1158 89.3595 50.425 88.5398 50.2238L87.0076 49.8476C86.1879 49.6463 85.8787 49.1359 86.0799 48.3162L88.2813 39.3499ZM97.8169 39.3845C98.0181 38.5648 98.5349 38.2572 99.3672 38.4615L103.056 39.3671C103.686 39.5219 104.21 39.6772 104.626 39.8329C105.058 39.9791 105.413 40.1398 105.691 40.315C106.039 40.534 106.345 40.8099 106.611 41.1426C106.877 41.4753 107.087 41.8476 107.239 42.2595C107.392 42.6715 107.478 43.1136 107.495 43.5859C107.526 44.0614 107.479 44.5513 107.355 45.0557C107.272 45.3962 107.147 45.7401 106.982 46.0872C106.816 46.4343 106.616 46.7596 106.381 47.0629C106.146 47.3662 105.873 47.6335 105.562 47.8647C105.252 48.096 104.908 48.2722 104.53 48.3935L104.521 48.4313C104.565 48.5225 104.608 48.6199 104.65 48.7237C104.694 48.8148 104.735 48.9186 104.774 49.0349C104.825 49.1544 104.871 49.2928 104.913 49.4501L105.872 52.8946C106.019 53.4389 105.966 53.8202 105.711 54.0386C105.46 54.2443 105.108 54.2915 104.654 54.18L102.895 53.7481C102.605 53.6769 102.349 53.5473 102.128 53.3592C101.906 53.1712 101.748 52.8916 101.652 52.5204L100.748 48.7685L99.8018 48.5363L99.0727 51.5061C98.8714 52.3258 98.361 52.635 97.5413 52.4338L96.028 52.0622C95.1957 51.8579 94.8801 51.3459 95.0814 50.5262L97.8169 39.3845ZM101.489 45.3403C101.968 45.458 102.348 45.4375 102.627 45.2788C102.923 45.1107 103.134 44.7681 103.261 44.251C103.304 44.0745 103.317 43.8839 103.301 43.6792C103.284 43.4746 103.151 43.2815 102.902 43.0999C102.766 42.9997 102.611 42.9216 102.438 42.8656C102.28 42.8001 102.094 42.7411 101.879 42.6885L101.274 42.5398L100.638 45.1314L101.489 45.3403ZM112.903 42.8478C113.294 42.2351 113.843 42.0155 114.549 42.1889L116.611 42.6951C117.317 42.8685 117.702 43.3172 117.764 44.0413L118.708 56.1265C118.754 56.5924 118.65 56.9345 118.396 57.1529C118.145 57.3587 117.799 57.4074 117.357 57.299L115.825 56.9228C115.119 56.7494 114.738 56.2881 114.681 55.5388L114.722 54.145L110.882 53.2022L110.273 54.4567C109.914 55.1038 109.375 55.3391 108.656 55.1627L107.124 54.7865C106.682 54.6781 106.398 54.4746 106.271 54.1759C106.147 53.8647 106.213 53.5132 106.47 53.1216L112.903 42.8478ZM114.59 50.763L114.638 48.7692C114.631 48.5268 114.631 48.2528 114.639 47.9472C114.651 47.6291 114.656 47.3362 114.655 47.0685C114.666 46.7503 114.677 46.4322 114.688 46.1141L114.65 46.1048C114.513 46.392 114.376 46.6791 114.238 46.9663C114.113 47.203 113.982 47.465 113.845 47.7522C113.723 48.0298 113.603 48.2744 113.484 48.4859L112.566 50.2661L114.59 50.763ZM123.805 48.0715L121.156 47.4213C120.337 47.22 120.027 46.7096 120.229 45.8899L120.461 44.944C120.662 44.1243 121.173 43.8151 121.992 44.0164L131.28 46.2967C132.1 46.498 132.409 47.0084 132.208 47.8281L131.976 48.7739C131.774 49.5936 131.264 49.9029 130.444 49.7016L127.796 49.0514L125.595 58.0177C125.393 58.8374 124.883 59.1466 124.063 58.9454L122.531 58.5692C121.711 58.3679 121.402 57.8575 121.603 57.0378L123.805 48.0715ZM131.037 53.3572C131.276 52.3861 131.669 51.5199 132.217 50.7586C132.765 49.9973 133.43 49.3851 134.212 48.922C134.998 48.4462 135.869 48.1386 136.826 47.9992C137.798 47.8502 138.827 47.9088 139.911 48.1751C140.983 48.4383 141.915 48.8611 142.708 49.4435C143.517 50.0165 144.153 50.694 144.616 51.4763C145.095 52.249 145.401 53.0997 145.534 54.0282C145.68 54.9598 145.633 55.9111 145.395 56.8822C145.15 57.8784 144.745 58.7683 144.178 59.5517C143.627 60.3257 142.957 60.9568 142.169 61.4451C141.393 61.9366 140.512 62.2552 139.527 62.4011C138.555 62.5501 137.532 62.493 136.46 62.2298C135.376 61.9636 134.437 61.5392 133.644 60.9567C132.864 60.3774 132.237 59.6887 131.765 58.8908C131.292 58.0928 130.991 57.2233 130.861 56.2822C130.734 55.3284 130.793 54.3534 131.037 53.3572ZM135.161 54.3696C135.04 54.8614 135.003 55.3403 135.049 55.8062C135.095 56.2721 135.212 56.6952 135.399 57.0755C135.59 57.4432 135.846 57.7602 136.169 58.0266C136.504 58.296 136.898 58.4865 137.352 58.5979C137.806 58.7094 138.244 58.7233 138.666 58.6396C139.087 58.5559 139.468 58.3953 139.807 58.1577C140.149 57.9074 140.448 57.5865 140.705 57.1949C140.962 56.8032 141.15 56.3615 141.271 55.8697C141.386 55.4031 141.417 54.9495 141.365 54.5088C141.315 54.0554 141.194 53.6513 141 53.2962C140.807 52.9411 140.541 52.6352 140.203 52.3783C139.868 52.1089 139.473 51.9185 139.019 51.807C138.565 51.6955 138.128 51.6816 137.706 51.7653C137.3 51.8395 136.929 51.989 136.593 52.2141C136.257 52.4391 135.962 52.7411 135.709 53.1201C135.458 53.4865 135.276 53.903 135.161 54.3696ZM148.229 51.7617C148.43 50.942 148.947 50.6343 149.78 50.8387L153.468 51.7443C154.099 51.8991 154.622 52.0544 155.039 52.2101C155.471 52.3563 155.826 52.517 156.104 52.6922C156.451 52.9112 156.758 53.187 157.024 53.5197C157.29 53.8524 157.499 54.2248 157.652 54.6367C157.805 55.0486 157.89 55.4908 157.908 55.9631C157.938 56.4385 157.891 56.9285 157.768 57.4329C157.684 57.7734 157.56 58.1172 157.394 58.4643C157.229 58.8115 157.028 59.1367 156.793 59.4401C156.559 59.7434 156.286 60.0107 155.975 60.2419C155.664 60.4731 155.32 60.6494 154.943 60.7706L154.933 60.8085C154.978 60.8996 155.021 60.9971 155.062 61.1008C155.106 61.192 155.148 61.2957 155.186 61.4121C155.237 61.5315 155.283 61.6699 155.325 61.8272L156.284 65.2718C156.431 65.816 156.378 66.1973 156.124 66.4157C155.873 66.6215 155.52 66.6687 155.066 66.5572L153.307 66.1253C153.017 66.0541 152.761 65.9244 152.54 65.7364C152.319 65.5484 152.16 65.2687 152.064 64.8975L151.16 61.1456L150.214 60.9134L149.485 63.8833C149.284 64.703 148.773 65.0122 147.954 64.8109L146.44 64.4394C145.608 64.2351 145.293 63.723 145.494 62.9033L148.229 51.7617ZM151.901 57.7175C152.381 57.8352 152.76 57.8147 153.04 57.656C153.335 57.4878 153.546 57.1452 153.673 56.6282C153.716 56.4516 153.73 56.261 153.713 56.0564C153.697 55.8518 153.564 55.6586 153.314 55.477C153.178 55.3768 153.023 55.2987 152.85 55.2428C152.692 55.1773 152.506 55.1182 152.292 55.0656L151.686 54.917L151.05 57.5085L151.901 57.7175Z" fill="white"/>
</svg>
