<svg width="102" height="30" viewBox="0 0 102 30" fill="none" xmlns="http://www.w3.org/2000/svg">
<path d="M31.3334 7.08299C31.3334 6.31442 31.463 5.61066 31.7223 4.97173C31.9908 4.32354 32.3612 3.76794 32.8335 3.30495C33.3057 2.84195 33.8659 2.48544 34.5141 2.23543C35.1716 1.97615 35.8892 1.84651 36.6671 1.84651C37.056 1.84651 37.4217 1.87892 37.7644 1.94374C38.1162 1.9993 38.4311 2.07338 38.7089 2.16598C38.9867 2.25858 39.2274 2.3558 39.4311 2.45766C39.6349 2.55026 39.7877 2.6336 39.8895 2.70768C40.1395 2.89288 40.2784 3.08271 40.3062 3.27717C40.3432 3.46236 40.2831 3.68923 40.1256 3.95777L39.6951 4.65226C39.5376 4.90228 39.3571 5.04118 39.1533 5.06896C38.9496 5.09674 38.7089 5.04118 38.4311 4.90228C38.1903 4.79116 37.9542 4.69856 37.7227 4.62448C37.5005 4.5504 37.2134 4.51336 36.8615 4.51336C36.3985 4.51336 36.005 4.58281 35.6809 4.72171C35.366 4.85135 35.1114 5.02729 34.9169 5.24953C34.7225 5.47176 34.579 5.72641 34.4864 6.01347C34.403 6.30053 34.3613 6.59684 34.3613 6.90242C34.3613 7.31912 34.4308 7.68951 34.5697 8.01361C34.7086 8.32845 34.8892 8.59698 35.1114 8.81922C35.3429 9.04146 35.6068 9.21277 35.9031 9.33315C36.1994 9.44427 36.5096 9.49982 36.8337 9.49982C37.1393 9.49982 37.3986 9.47204 37.6116 9.41649C37.8338 9.35167 38.0098 9.28222 38.1394 9.20814C38.2968 9.11554 38.4218 9.01368 38.5144 8.90256V8.55531H38.1116C37.5097 8.55531 37.2088 8.24974 37.2088 7.63858V6.97187C37.2088 6.36998 37.5097 6.06903 38.1116 6.06903H40.1812C40.7924 6.06903 41.0979 6.36998 41.0979 6.97187V11.0972C41.0979 11.6991 40.7924 12 40.1812 12H39.6395C39.3432 12 39.1163 11.9306 38.9589 11.7917C38.8107 11.6528 38.7367 11.4907 38.7367 11.3055V11.4305V11.3888C38.7367 11.3796 38.7413 11.375 38.7505 11.375H38.7228C38.5561 11.5324 38.3524 11.6666 38.1116 11.7778C37.9079 11.8796 37.6532 11.9676 37.3477 12.0417C37.0421 12.125 36.681 12.1667 36.2643 12.1667C35.6346 12.1667 35.0234 12.0556 34.4308 11.8333C33.8382 11.6018 33.3103 11.2685 32.8474 10.8333C32.3936 10.398 32.0278 9.86559 31.7501 9.23592C31.4723 8.60624 31.3334 7.8886 31.3334 7.08299ZM41.8864 6.94409C41.8864 6.23108 42.0114 5.56436 42.2614 4.94395C42.5114 4.32354 42.8679 3.78646 43.3309 3.33273C43.7939 2.86973 44.3449 2.50859 44.9838 2.24932C45.632 1.98078 46.3543 1.84651 47.1507 1.84651C47.9377 1.84651 48.6554 1.98078 49.3036 2.24932C49.961 2.50859 50.5166 2.86973 50.9704 3.33273C51.4334 3.78646 51.7899 4.32354 52.0399 4.94395C52.2992 5.56436 52.4288 6.23108 52.4288 6.94409C52.4288 7.67562 52.2992 8.36086 52.0399 8.99979C51.7899 9.62946 51.4334 10.1804 50.9704 10.6527C50.5166 11.1249 49.961 11.4953 49.3036 11.7639C48.6554 12.0324 47.9377 12.1667 47.1507 12.1667C46.3543 12.1667 45.632 12.0324 44.9838 11.7639C44.3449 11.4953 43.7939 11.1249 43.3309 10.6527C42.8679 10.1804 42.5114 9.62946 42.2614 8.99979C42.0114 8.36086 41.8864 7.67562 41.8864 6.94409ZM44.9144 6.94409C44.9144 7.30523 44.9699 7.64321 45.0811 7.95805C45.1922 8.27289 45.345 8.54605 45.5394 8.77755C45.7339 8.99979 45.9654 9.17573 46.2339 9.30537C46.5117 9.43501 46.8173 9.49982 47.1507 9.49982C47.484 9.49982 47.7896 9.43501 48.0674 9.30537C48.3452 9.17573 48.5813 8.99979 48.7758 8.77755C48.9702 8.54605 49.123 8.27289 49.2341 7.95805C49.3453 7.64321 49.4008 7.30523 49.4008 6.94409C49.4008 6.60147 49.3453 6.28201 49.2341 5.98569C49.123 5.68011 48.9702 5.42083 48.7758 5.20786C48.5813 4.99488 48.3452 4.8282 48.0674 4.70782C47.7896 4.57818 47.484 4.51336 47.1507 4.51336C46.8173 4.51336 46.5117 4.57818 46.2339 4.70782C45.9654 4.8282 45.7339 4.99488 45.5394 5.20786C45.345 5.42083 45.1922 5.68011 45.0811 5.98569C44.9699 6.28201 44.9144 6.60147 44.9144 6.94409ZM53.0905 6.94409C53.0905 6.23108 53.2155 5.56436 53.4656 4.94395C53.7156 4.32354 54.0721 3.78646 54.5351 3.33273C54.9981 2.86973 55.549 2.50859 56.188 2.24932C56.8362 1.98078 57.5584 1.84651 58.3548 1.84651C59.1419 1.84651 59.8595 1.98078 60.5077 2.24932C61.1652 2.50859 61.7208 2.86973 62.1745 3.33273C62.6375 3.78646 62.994 4.32354 63.244 4.94395C63.5033 5.56436 63.6329 6.23108 63.6329 6.94409C63.6329 7.67562 63.5033 8.36086 63.244 8.99979C62.994 9.62946 62.6375 10.1804 62.1745 10.6527C61.7208 11.1249 61.1652 11.4953 60.5077 11.7639C59.8595 12.0324 59.1419 12.1667 58.3548 12.1667C57.5584 12.1667 56.8362 12.0324 56.188 11.7639C55.549 11.4953 54.9981 11.1249 54.5351 10.6527C54.0721 10.1804 53.7156 9.62946 53.4656 8.99979C53.2155 8.36086 53.0905 7.67562 53.0905 6.94409ZM56.1185 6.94409C56.1185 7.30523 56.1741 7.64321 56.2852 7.95805C56.3963 8.27289 56.5491 8.54605 56.7436 8.77755C56.938 8.99979 57.1695 9.17573 57.4381 9.30537C57.7158 9.43501 58.0214 9.49982 58.3548 9.49982C58.6881 9.49982 58.9937 9.43501 59.2715 9.30537C59.5493 9.17573 59.7854 8.99979 59.9799 8.77755C60.1744 8.54605 60.3271 8.27289 60.4383 7.95805C60.5494 7.64321 60.6049 7.30523 60.6049 6.94409C60.6049 6.60147 60.5494 6.28201 60.4383 5.98569C60.3271 5.68011 60.1744 5.42083 59.9799 5.20786C59.7854 4.99488 59.5493 4.8282 59.2715 4.70782C58.9937 4.57818 58.6881 4.51336 58.3548 4.51336C58.0214 4.51336 57.7158 4.57818 57.4381 4.70782C57.1695 4.8282 56.938 4.99488 56.7436 5.20786C56.5491 5.42083 56.3963 5.68011 56.2852 5.98569C56.1741 6.28201 56.1185 6.60147 56.1185 6.94409ZM64.7252 2.91603C64.7252 2.31413 65.0308 2.01319 65.642 2.01319H68.3783C69.1746 2.01319 69.8923 2.12431 70.5312 2.34654C71.1794 2.56878 71.7257 2.89288 72.1702 3.31884C72.6239 3.74479 72.9712 4.26798 73.2119 4.88839C73.462 5.49954 73.587 6.19867 73.587 6.98576C73.587 7.76359 73.462 8.46271 73.2119 9.08313C72.9712 9.70354 72.6239 10.2314 72.1702 10.6666C71.7257 11.0925 71.1794 11.4213 70.5312 11.6528C69.8923 11.8843 69.1746 12 68.3783 12H65.642C65.0308 12 64.7252 11.6991 64.7252 11.0972V2.91603ZM68.281 9.49982C69.0033 9.49982 69.5635 9.29148 69.9617 8.87478C70.3599 8.44882 70.559 7.81915 70.559 6.98576C70.559 6.15237 70.3506 5.53195 69.9339 5.12452C69.5265 4.71708 68.9755 4.51336 68.281 4.51336H67.656V9.49982H68.281ZM31.7639 17.916C31.7639 17.3141 32.0695 17.0132 32.6807 17.0132H33.7919C34.3938 17.0132 34.6947 17.3141 34.6947 17.916V24.4998H37.681C38.2922 24.4998 38.5978 24.8008 38.5978 25.4027V26.0972C38.5978 26.6991 38.2922 27 37.681 27H32.6807C32.0695 27 31.7639 26.6991 31.7639 26.0972V17.916ZM39.1003 17.916C39.1003 17.3141 39.4012 17.0132 40.0031 17.0132H41.1282C41.7301 17.0132 42.031 17.3141 42.031 17.916V23.2636C42.031 23.6803 42.1514 23.9905 42.3922 24.1942C42.6422 24.398 42.9756 24.4998 43.3923 24.4998C43.8089 24.4998 44.1423 24.4026 44.3923 24.2081C44.6423 24.0044 44.7674 23.6942 44.7674 23.2775V17.916C44.7674 17.3141 45.0683 17.0132 45.6702 17.0132H46.7814C47.3833 17.0132 47.6842 17.3141 47.6842 17.916V23.2636C47.6842 23.8285 47.5824 24.3517 47.3786 24.8332C47.1749 25.3054 46.8879 25.7175 46.5175 26.0694C46.1471 26.412 45.698 26.6805 45.1702 26.875C44.6423 27.0694 44.0543 27.1667 43.4061 27.1667C42.7487 27.1667 42.1561 27.0694 41.6282 26.875C41.1004 26.6805 40.6467 26.412 40.267 26.0694C39.8966 25.7175 39.6096 25.3054 39.4059 24.8332C39.2021 24.3517 39.1003 23.8285 39.1003 23.2636V17.916ZM48.6957 21.9996C48.6957 21.2774 48.8253 20.6014 49.0846 19.9717C49.3439 19.3421 49.705 18.7957 50.168 18.3327C50.6403 17.8697 51.2005 17.5086 51.8487 17.2493C52.5061 16.9808 53.2284 16.8465 54.0155 16.8465C54.747 16.8465 55.3721 16.9437 55.8906 17.1382C56.4184 17.3327 56.8444 17.5364 57.1685 17.7494C57.4 17.916 57.5296 18.1105 57.5574 18.3327C57.5852 18.5457 57.5204 18.7726 57.363 19.0133L56.9463 19.7078C56.6499 20.1986 56.2379 20.2866 55.7101 19.9717C55.4693 19.8421 55.2147 19.7356 54.9461 19.6523C54.6868 19.5597 54.4229 19.5134 54.1544 19.5134C53.6914 19.5134 53.3025 19.5874 52.9877 19.7356C52.6821 19.8745 52.4321 20.0597 52.2376 20.2912C52.0524 20.5227 51.9181 20.782 51.8348 21.069C51.7607 21.3561 51.7237 21.6431 51.7237 21.9302C51.7237 22.2265 51.7653 22.5275 51.8487 22.833C51.9413 23.1386 52.0848 23.4164 52.2793 23.6664C52.4737 23.9072 52.7237 24.1063 53.0293 24.2637C53.3349 24.4211 53.7053 24.4998 54.1405 24.4998C54.4553 24.4998 54.7609 24.4443 55.0572 24.3331C55.3628 24.2128 55.636 24.0692 55.8767 23.9026C56.1268 23.7359 56.3583 23.6618 56.5712 23.6803C56.7842 23.6988 56.974 23.8331 57.1407 24.0831L57.6269 24.7498C57.7843 24.9813 57.8537 25.2082 57.8352 25.4304C57.8167 25.6527 57.6917 25.8471 57.4602 26.0138C57.2935 26.1435 57.0944 26.2777 56.8629 26.4166C56.6314 26.5555 56.3721 26.6805 56.0851 26.7917C55.798 26.9028 55.4786 26.9907 55.1267 27.0556C54.7841 27.1296 54.409 27.1667 54.0016 27.1667C53.1867 27.1667 52.4506 27.037 51.7931 26.7778C51.1357 26.5185 50.5754 26.162 50.1125 25.7082C49.6587 25.2452 49.3068 24.6989 49.0568 24.0692C48.8161 23.4303 48.6957 22.7404 48.6957 21.9996ZM58.7569 17.916C58.7569 17.3141 59.0625 17.0132 59.6737 17.0132H60.7849C61.3868 17.0132 61.6877 17.3141 61.6877 17.916V20.7079H62.4655L63.9795 17.666C64.2203 17.2308 64.5814 17.0132 65.0629 17.0132H66.2019C66.563 17.0132 66.8038 17.115 66.9242 17.3188C67.0446 17.5225 67.0214 17.7818 66.8547 18.0966L64.8546 21.8052V21.833L67.0075 25.9027C67.1835 26.2268 67.2112 26.4907 67.0909 26.6944C66.9705 26.8981 66.7297 27 66.3686 27H65.0629C64.5814 27 64.2203 26.7824 63.9795 26.3472L62.4655 23.1942H61.6877V26.0972C61.6877 26.6991 61.3868 27 60.7849 27H59.6737C59.0625 27 58.7569 26.6991 58.7569 26.0972V17.916ZM68.1421 25.0693C68.2625 24.5508 68.6051 24.2915 69.17 24.2915H69.92C70.2627 24.2915 70.4988 24.3887 70.6284 24.5832C70.7581 24.7776 70.7581 25.0323 70.6284 25.3471L69.6561 27.7501C69.4709 28.2223 69.1237 28.4584 68.6144 28.4584H68.3366C68.0125 28.4584 67.7764 28.3658 67.6282 28.1806C67.4893 28.0047 67.4662 27.7547 67.5588 27.4306L68.1421 25.0693ZM77.4167 17.7494C77.5833 17.2586 77.926 17.0132 78.4445 17.0132H79.9585C80.4771 17.0132 80.8197 17.2586 80.9864 17.7494L83.6949 25.9583C83.806 26.2731 83.7921 26.5277 83.6532 26.7222C83.5143 26.9074 83.2828 27 82.9587 27H81.8336C81.3151 27 80.9725 26.7454 80.8058 26.2361L80.5974 25.2638H77.7778L77.5695 26.2361C77.4306 26.7454 77.0972 27 76.5694 27H75.4443C75.1202 27 74.8887 26.9074 74.7498 26.7222C74.6109 26.5277 74.597 26.2731 74.7081 25.9583L77.4167 17.7494ZM79.9307 22.9442L79.6252 21.5552C79.5789 21.3885 79.5326 21.1987 79.4863 20.9857C79.44 20.7635 79.3937 20.5597 79.3474 20.3745C79.3011 20.1523 79.2548 19.9301 79.2085 19.7078H79.1807C79.1344 19.9301 79.0881 20.1523 79.0418 20.3745C78.9955 20.5597 78.9492 20.7635 78.9029 20.9857C78.8658 21.1987 78.8242 21.3885 78.7779 21.5552L78.4445 22.9442H79.9307ZM84.6241 17.916C84.6241 17.3141 84.9297 17.0132 85.5408 17.0132H88.2771C89.0735 17.0132 89.7911 17.1243 90.4301 17.3465C91.0783 17.5688 91.6246 17.8929 92.0691 18.3188C92.5228 18.7448 92.87 19.268 93.1108 19.8884C93.3608 20.4995 93.4858 21.1987 93.4858 21.9858C93.4858 22.7636 93.3608 23.4627 93.1108 24.0831C92.87 24.7035 92.5228 25.2314 92.0691 25.6666C91.6246 26.0925 91.0783 26.4213 90.4301 26.6528C89.7911 26.8843 89.0735 27 88.2771 27H85.5408C84.9297 27 84.6241 26.6991 84.6241 26.0972V17.916ZM88.1799 24.4998C88.9022 24.4998 89.4624 24.2915 89.8606 23.8748C90.2588 23.4488 90.4578 22.8192 90.4578 21.9858C90.4578 21.1524 90.2495 20.532 89.8328 20.1245C89.4254 19.7171 88.8744 19.5134 88.1799 19.5134H87.5549V24.4998H88.1799ZM94.6074 17.916C94.6074 17.3141 94.913 17.0132 95.5242 17.0132H100.177C100.779 17.0132 101.08 17.3141 101.08 17.916V18.6105C101.08 19.2124 100.779 19.5134 100.177 19.5134H97.5382V20.7218H99.4272C100.038 20.7218 100.344 21.0227 100.344 21.6246V22.3191C100.344 22.921 100.038 23.222 99.4272 23.222H97.5382V24.4998H100.344C100.955 24.4998 101.261 24.8008 101.261 25.4027V26.0972C101.261 26.6991 100.955 27 100.344 27H95.5242C94.913 27 94.6074 26.6991 94.6074 26.0972V17.916Z" fill="#141518"/>
<path d="M13.8 0.599609L15.9758 9.1468L23.5581 4.64154L19.0528 12.2238L27.6 14.3996L19.0528 16.5754L23.5581 24.1577L15.9758 19.6524L13.8 28.1996L11.6242 19.6524L4.04193 24.1577L8.54719 16.5754L0 14.3996L8.54719 12.2238L4.04193 4.64154L11.6242 9.1468L13.8 0.599609Z" fill="#141518"/>
</svg>
