<svg width="133" height="55" viewBox="0 0 133 55" fill="none" xmlns="http://www.w3.org/2000/svg">
<ellipse cx="66.5" cy="27.0385" rx="66.5" ry="27.0385" fill="#9A64CE"/>
<path d="M40.3152 41.0799L35.3898 33.8805C35.0514 33.4176 34.9604 33.0176 35.1167 32.6807C35.2874 32.3423 35.6476 32.1456 36.1972 32.0908L38.3234 31.8786C39.0899 31.8021 39.6749 32.1016 40.0783 32.7772L41.1301 34.7538C41.2747 35.0315 41.4128 35.3172 41.5443 35.6108C41.6903 35.903 41.8118 36.1685 41.9086 36.4071C42.0243 36.6877 42.132 36.9618 42.2317 37.2294L42.2751 37.2251C42.32 36.9431 42.3714 36.6531 42.4293 36.3552C42.4771 36.1021 42.5365 35.8186 42.6074 35.5047C42.6928 35.1895 42.7789 34.8814 42.8658 34.5806L43.5062 32.4351C43.7537 31.6946 44.2607 31.2861 45.0273 31.2096L47.1534 30.9975C47.7031 30.9426 48.0878 31.0649 48.3075 31.3643C48.5418 31.6623 48.5388 32.0716 48.2986 32.5923L44.893 40.6231L45.3801 45.5046C45.4739 46.4447 45.0508 46.9617 44.1106 47.0555L42.3533 47.2309C41.4132 47.3247 40.8962 46.9015 40.8024 45.9614L40.3152 41.0799ZM49.0892 38.5829C48.978 37.4692 49.0694 36.4083 49.3632 35.4003C49.657 34.3922 50.1301 33.4978 50.7826 32.7169C51.4336 31.9215 52.2379 31.2716 53.1955 30.767C54.1661 30.2465 55.2733 29.9242 56.5172 29.8001C57.7466 29.6774 58.8885 29.7753 59.9428 30.0937C61.0101 30.3962 61.9342 30.8737 62.7151 31.5261C63.509 32.1627 64.1496 32.946 64.6368 33.8761C65.1385 34.8048 65.4449 35.8259 65.5561 36.9396C65.6701 38.0823 65.5744 39.1728 65.269 40.2112C64.9766 41.2337 64.5057 42.1498 63.8561 42.9597C63.221 43.768 62.4109 44.4332 61.4258 44.9551C60.4552 45.4756 59.3552 45.7972 58.1258 45.9199C56.8819 46.044 55.7328 45.9468 54.6785 45.6284C53.6387 45.3086 52.7204 44.8159 51.9236 44.1504C51.1268 43.4849 50.484 42.6799 49.9954 41.7354C49.5053 40.7763 49.2032 39.7255 49.0892 38.5829ZM53.8188 38.1109C53.8751 38.675 54.0145 39.1943 54.2372 39.6687C54.4598 40.1431 54.741 40.546 55.0809 40.8773C55.4192 41.1941 55.8083 41.4328 56.2479 41.5935C56.702 41.7527 57.1894 41.8063 57.7101 41.7543C58.2308 41.7024 58.698 41.5535 59.1117 41.3077C59.5254 41.0619 59.8668 40.7503 60.1359 40.3728C60.4036 39.9809 60.5996 39.5304 60.7241 39.0214C60.8486 38.5123 60.8827 37.9757 60.8264 37.4116C60.773 36.8765 60.6365 36.3861 60.4167 35.9406C60.1955 35.4806 59.9164 35.0994 59.5795 34.7971C59.2426 34.4947 58.8478 34.2712 58.3951 34.1265C57.941 33.9673 57.4536 33.9137 56.9329 33.9656C56.4122 34.0176 55.945 34.1665 55.5313 34.4123C55.1306 34.6421 54.795 34.9386 54.5245 35.3015C54.2539 35.6645 54.0557 36.0933 53.9297 36.5879C53.8024 37.0681 53.7654 37.5758 53.8188 38.1109ZM66.5042 30.4907C66.4104 29.5505 66.8335 29.0336 67.7736 28.9397L69.531 28.7644C70.4711 28.6705 70.9881 29.0937 71.0819 30.0338L71.9155 38.3866C71.9804 39.0375 72.2168 39.5033 72.6246 39.7839C73.0469 40.0632 73.5834 40.1703 74.2343 40.1053C74.8852 40.0404 75.3907 39.8366 75.7509 39.4939C76.1097 39.1367 76.2566 38.6327 76.1916 37.9818L75.3559 29.6073C75.2621 28.6672 75.6853 28.1502 76.6254 28.0564L78.3611 27.8832C79.3012 27.7894 79.8182 28.2125 79.912 29.1527L80.7455 37.5055C80.8336 38.3877 80.756 39.2208 80.5129 40.0047C80.2683 40.7741 79.8841 41.4625 79.3604 42.0698C78.8353 42.6627 78.1757 43.1521 77.3815 43.5382C76.5874 43.9242 75.6841 44.1677 74.6717 44.2687C73.6448 44.3712 72.7039 44.3117 71.8492 44.0902C70.9945 43.8688 70.2439 43.52 69.5975 43.0441C68.9641 42.5522 68.4515 41.9533 68.0597 41.2474C67.6664 40.527 67.4257 39.7257 67.3377 38.8434L66.5042 30.4907ZM87.5883 28.3867C87.4945 27.4465 87.9249 26.9288 88.8795 26.8336L93.1535 26.407C94.3974 26.2829 95.5356 26.3446 96.5683 26.5922C97.6154 26.8383 98.5192 27.2593 99.2799 27.8554C100.055 28.45 100.679 29.213 101.152 30.1446C101.637 31.0602 101.942 32.1327 102.064 33.3621C102.186 34.5771 102.099 35.6886 101.806 36.6966C101.526 37.7032 101.066 38.5818 100.425 39.3323C99.7973 40.0669 98.9952 40.6655 98.0188 41.1281C97.0569 41.5893 95.954 41.882 94.7101 42.0061L90.4361 42.4326C89.4815 42.5279 88.9573 42.1054 88.8635 41.1653L87.5883 28.3867ZM94.1686 38.1161C95.2967 38.0035 96.1393 37.5907 96.6963 36.8778C97.2518 36.1504 97.4647 35.1359 97.3348 33.8341C97.2049 32.5324 96.7827 31.5958 96.0684 31.0244C95.3684 30.4515 94.4761 30.2191 93.3913 30.3274L92.415 30.4248L93.1923 38.2135L94.1686 38.1161ZM103.137 33.1894C103.026 32.0757 103.117 31.0148 103.411 30.0067C103.705 28.9987 104.178 28.1042 104.831 27.3234C105.482 26.528 106.286 25.878 107.244 25.3735C108.214 24.853 109.321 24.5307 110.565 24.4066C111.795 24.2839 112.937 24.3817 113.991 24.7002C115.058 25.0027 115.982 25.4801 116.763 26.1326C117.557 26.7691 118.198 27.5525 118.685 28.4826C119.187 29.4112 119.493 30.4324 119.604 31.5461C119.718 32.6887 119.622 33.7792 119.317 34.8177C119.025 35.8402 118.554 36.7563 117.904 37.5661C117.269 38.3745 116.459 39.0396 115.474 39.5616C114.503 40.0821 113.403 40.4036 112.174 40.5263C110.93 40.6504 109.781 40.5533 108.727 40.2349C107.687 39.915 106.768 39.4224 105.972 38.7569C105.175 38.0914 104.532 37.2864 104.043 36.3418C103.553 35.3828 103.251 34.332 103.137 33.1894ZM107.867 32.7174C107.923 33.2815 108.063 33.8007 108.285 34.2752C108.508 34.7496 108.789 35.1525 109.129 35.4838C109.467 35.8006 109.856 36.0393 110.296 36.1999C110.75 36.3591 111.238 36.4127 111.758 36.3608C112.279 36.3088 112.746 36.1599 113.16 35.9142C113.573 35.6684 113.915 35.3567 114.184 34.9793C114.452 34.5874 114.648 34.1369 114.772 33.6278C114.897 33.1187 114.931 32.5822 114.875 32.0181C114.821 31.4829 114.685 30.9926 114.465 30.5471C114.244 30.0871 113.965 29.7059 113.628 29.4036C113.291 29.1012 112.896 28.8777 112.443 28.7329C111.989 28.5738 111.502 28.5201 110.981 28.5721C110.46 28.6241 109.993 28.7729 109.579 29.0187C109.179 29.2486 108.843 29.545 108.573 29.908C108.302 30.271 108.104 30.6998 107.978 31.1944C107.85 31.6746 107.813 32.1822 107.867 32.7174Z" fill="white"/>
<path d="M16.5406 16.7817C16.4468 15.8416 16.8772 15.3239 17.8318 15.2286L23.234 14.6895C24.015 14.6116 24.7382 14.6855 25.4035 14.9112C26.0673 15.1225 26.6479 15.4517 27.1454 15.8987C27.6573 16.3443 28.0708 16.902 28.386 17.5717C28.6997 18.2269 28.8962 18.9523 28.9756 19.7478C29.0565 20.5578 29.0086 21.3222 28.832 22.0409C28.6539 22.7453 28.3587 23.3736 27.9464 23.9261C27.5486 24.477 27.0459 24.9289 26.4383 25.2817C25.8294 25.62 25.1343 25.8281 24.3533 25.9061L22.097 26.1312L22.3936 29.1035C22.4874 30.0437 22.0642 30.5606 21.1241 30.6545L19.3885 30.8277C18.4339 30.9229 17.9097 30.5005 17.8158 29.5603L16.5406 16.7817ZM22.9873 22.0983C23.5369 22.0435 23.9108 21.8382 24.1091 21.4824C24.3058 21.1122 24.3804 20.6884 24.3328 20.2111C24.2852 19.7338 24.1298 19.3476 23.8666 19.0525C23.6179 18.756 23.2404 18.6329 22.7342 18.6835L21.3674 18.8199L21.7073 22.2261L22.9873 22.0983ZM29.9944 15.4391C29.9006 14.499 30.331 13.9813 31.2856 13.886L33.0212 13.7128C33.9613 13.619 34.4783 14.0422 34.5721 14.9823L35.5984 25.266L40.2629 24.8005C41.2175 24.7052 41.7417 25.1277 41.8355 26.0678L41.9438 27.1526C42.0376 28.0927 41.6072 28.6104 40.6526 28.7057L32.8422 29.4851C31.8876 29.5804 31.3634 29.1579 31.2696 28.2178L29.9944 15.4391ZM43.2125 27.1794C42.9175 27.0043 42.6898 26.7714 42.5293 26.4806C42.3833 26.1884 42.452 25.7799 42.7356 25.2549L43.441 23.9794C43.6638 23.5773 43.9249 23.3395 44.2243 23.2658C44.5382 23.1906 44.9164 23.2478 45.3589 23.4374C45.4934 23.4678 45.6453 23.5257 45.8145 23.6111C45.9982 23.695 46.2035 23.7767 46.4306 23.8563C46.6576 23.9359 46.905 23.9989 47.1725 24.0452C47.4401 24.0916 47.7257 24.0996 48.0295 24.0693C48.4778 24.0245 48.7751 23.9291 48.9212 23.7831C49.0659 23.6226 49.1288 23.4483 49.11 23.2603C49.0826 22.9855 48.8932 22.7706 48.5418 22.6158C48.2048 22.4595 47.7811 22.3119 47.2705 22.173C46.76 22.034 46.2111 21.877 45.624 21.7019C45.0354 21.5123 44.4764 21.254 43.9471 20.927C43.4178 20.6 42.9594 20.1783 42.5719 19.6619C42.1974 19.1296 41.9683 18.4439 41.8846 17.6051C41.8095 16.8529 41.8863 16.1587 42.115 15.5224C42.3422 14.8716 42.6945 14.3032 43.1719 13.8174C43.6493 13.3315 44.2308 12.9375 44.9164 12.6353C45.6006 12.3187 46.3549 12.1193 47.1793 12.037C47.6277 11.9923 48.0725 11.9844 48.5136 12.0134C48.9533 12.028 49.3669 12.0744 49.7545 12.1525C50.1407 12.2163 50.4928 12.3053 50.811 12.4196C51.1422 12.518 51.4155 12.6222 51.631 12.7322C52.0345 12.9695 52.2818 13.2516 52.3728 13.5784C52.4624 13.8909 52.432 14.2445 52.2815 14.6393L51.7757 15.9387C51.6715 16.2121 51.5456 16.4145 51.3981 16.5461C51.265 16.6763 51.1204 16.7637 50.9641 16.8086C50.8065 16.8389 50.6308 16.8345 50.4369 16.7954C50.2576 16.7549 50.0768 16.6999 49.8946 16.6304C49.4868 16.4958 49.1021 16.3735 48.7405 16.2635C48.3934 16.1521 47.9884 16.1195 47.5256 16.1657C47.0917 16.209 46.7952 16.3116 46.636 16.4736C46.4755 16.621 46.4053 16.796 46.4255 16.9985C46.4558 17.3023 46.6394 17.5323 46.9764 17.6885C47.3278 17.8434 47.7588 17.9903 48.2693 18.1292C48.7784 18.2537 49.3266 18.4035 49.9137 18.5787C50.5139 18.7379 51.0779 18.9737 51.6058 19.2863C52.1336 19.5988 52.5841 20.014 52.9571 20.5318C53.3447 21.0483 53.5803 21.7259 53.664 22.5648C53.7318 23.2446 53.6659 23.9012 53.4662 24.5347C53.2809 25.1667 52.9655 25.7387 52.5199 26.2506C52.0888 26.761 51.5326 27.189 50.8513 27.5346C50.17 27.8801 49.3665 28.0991 48.4408 28.1914C47.9057 28.2448 47.3727 28.2469 46.8419 28.1976C46.327 28.1613 45.8382 28.0933 45.3753 27.9934C44.9125 27.8935 44.4917 27.7748 44.1128 27.6373C43.7469 27.4839 43.4468 27.3313 43.2125 27.1794ZM61.1791 25.3864C60.8841 25.2114 60.6563 24.9785 60.4959 24.6877C60.3498 24.3955 60.4186 23.987 60.7022 23.462L61.4076 22.1865C61.6304 21.7844 61.8915 21.5466 62.1909 21.4729C62.5048 21.3977 62.883 21.4549 63.3255 21.6445C63.46 21.6749 63.6119 21.7328 63.7811 21.8181C63.9647 21.9021 64.1701 21.9838 64.3972 22.0634C64.6242 22.143 64.8715 22.206 65.1391 22.2523C65.4067 22.2987 65.6923 22.3067 65.9961 22.2764C66.4444 22.2316 66.7417 22.1362 66.8878 21.9902C67.0324 21.8297 67.0954 21.6554 67.0766 21.4674C67.0492 21.1926 66.8598 20.9777 66.5084 20.8229C66.1714 20.6666 65.7476 20.519 65.2371 20.3801C64.7266 20.2411 64.1777 20.0841 63.5906 19.9089C63.0019 19.7194 62.443 19.4611 61.9137 19.1341C61.3844 18.8071 60.926 18.3854 60.5385 17.869C60.164 17.3366 59.9349 16.651 59.8512 15.8121C59.7761 15.06 59.8529 14.3658 60.0816 13.7295C60.3088 13.0787 60.6611 12.5103 61.1385 12.0245C61.6159 11.5386 62.1974 11.1446 62.883 10.8424C63.5672 10.5258 64.3215 10.3264 65.1459 10.2441C65.5943 10.1994 66.039 10.1915 66.4802 10.2205C66.9199 10.2351 67.3335 10.2815 67.7211 10.3596C68.1073 10.4234 68.4594 10.5124 68.7776 10.6267C69.1088 10.7251 69.3821 10.8293 69.5976 10.9393C70.0011 11.1766 70.2483 11.4586 70.3394 11.7855C70.429 12.098 70.3986 12.4516 70.2481 12.8464L69.7423 14.1458C69.6381 14.4192 69.5122 14.6216 69.3647 14.7532C69.2316 14.8834 69.0869 14.9708 68.9307 15.0156C68.7731 15.046 68.5973 15.0416 68.4035 15.0025C68.2242 14.962 68.0434 14.907 67.8612 14.8375C67.4534 14.7029 67.0687 14.5806 66.7071 14.4706C66.36 14.3592 65.955 14.3266 65.4922 14.3728C65.0583 14.4161 64.7618 14.5187 64.6026 14.6806C64.4421 14.8281 64.3719 15.0031 64.3921 15.2056C64.4224 15.5094 64.606 15.7394 64.943 15.8956C65.2944 16.0505 65.7254 16.1974 66.2359 16.3363C66.745 16.4608 67.2931 16.6106 67.8803 16.7857C68.4805 16.945 69.0445 17.1808 69.5724 17.4933C70.1002 17.8059 70.5507 18.2211 70.9237 18.7389C71.3112 19.2553 71.5469 19.933 71.6306 20.7719C71.6984 21.4517 71.6325 22.1083 71.4327 22.7418C71.2475 23.3738 70.9321 23.9457 70.4865 24.4577C70.0554 24.9681 69.4992 25.3961 68.8179 25.7417C68.1366 26.0872 67.3331 26.3061 66.4074 26.3985C65.8722 26.4519 65.3393 26.454 64.8085 26.4047C64.2936 26.3684 63.8047 26.3004 63.3419 26.2005C62.8791 26.1006 62.4583 25.9819 62.0794 25.8444C61.7135 25.691 61.4134 25.5384 61.1791 25.3864ZM75.619 10.6232C75.8028 9.83069 76.2997 9.394 77.1097 9.31318L79.4745 9.07719C80.2845 8.99636 80.8579 9.32624 81.1947 10.0668L86.7049 22.4667C86.9275 22.9411 86.9455 23.3411 86.7588 23.6664C86.5708 23.9774 86.2236 24.1581 85.7174 24.2086L83.96 24.384C83.1501 24.4648 82.5752 24.1205 82.2355 23.3509L81.7585 21.8647L77.3543 22.3042L77.1804 23.8554C77.0429 24.6725 76.5619 25.1222 75.7374 25.2045L73.9801 25.3799C73.4739 25.4304 73.0979 25.3219 72.852 25.0542C72.6048 24.7721 72.5434 24.3766 72.6679 23.8675L75.619 10.6232ZM80.3556 18.3455L79.6618 16.2236C79.5635 15.9704 79.4616 15.6812 79.356 15.3557C79.2491 15.0158 79.145 14.7048 79.0438 14.4228C78.9369 14.0828 78.8299 13.7429 78.723 13.403L78.6796 13.4074C78.6419 13.7617 78.6042 14.116 78.5665 14.4704C78.5231 14.7669 78.4825 15.0923 78.4448 15.4466C78.4202 15.7851 78.3847 16.0881 78.3383 16.3556L78.0341 18.5772L80.3556 18.3455ZM89.6946 17.4574L84.7691 10.2579C84.4307 9.79504 84.3397 9.39511 84.496 9.05814C84.6667 8.71973 85.0269 8.52311 85.5765 8.46826L87.7027 8.25609C88.4693 8.17959 89.0542 8.4791 89.4576 9.15462L90.5094 11.1313C90.654 11.409 90.7921 11.6947 90.9236 11.9883C91.0696 12.2805 91.1911 12.5459 91.2879 12.7846C91.4036 13.0652 91.5113 13.3393 91.611 13.6069L91.6544 13.6026C91.6993 13.3205 91.7507 13.0306 91.8086 12.7326C91.8564 12.4795 91.9158 12.1961 91.9867 11.8822C92.0721 11.5669 92.1582 11.2589 92.2451 10.9581L92.8855 8.81255C93.133 8.07208 93.64 7.66359 94.4066 7.58709L96.5327 7.37492C97.0824 7.32007 97.4671 7.44237 97.6868 7.74181C97.9211 8.0398 97.9181 8.44911 97.6779 8.96974L94.2723 17.0005L94.7594 21.882C94.8533 22.8222 94.4301 23.3392 93.49 23.433L91.7326 23.6083C90.7925 23.7022 90.2755 23.279 90.1817 22.3389L89.6946 17.4574Z" fill="white"/>
</svg>
