<svg width="133" height="55" viewBox="0 0 133 55" fill="none" xmlns="http://www.w3.org/2000/svg">
<ellipse cx="66.5" cy="27.6439" rx="66.5" ry="27.0385" fill="#9A64CE"/>
<path d="M36.2945 32.1108C36.2007 31.1707 36.6311 30.653 37.5857 30.5577L41.8163 30.1355C42.5395 30.0634 43.1499 30.0317 43.6474 30.0404C44.158 30.0333 44.5926 30.0703 44.9513 30.1514C45.3996 30.2527 45.8262 30.4292 46.2312 30.681C46.6361 30.9327 46.9962 31.2474 47.3114 31.6249C47.6266 32.0025 47.8818 32.4372 48.077 32.929C48.2866 33.4193 48.4202 33.9538 48.478 34.5323C48.517 34.9228 48.514 35.3321 48.4691 35.7603C48.4241 36.1884 48.3344 36.6063 48.1998 37.0142C48.0652 37.422 47.8771 37.806 47.6355 38.1661C47.3939 38.5261 47.0966 38.8407 46.7436 39.1096L46.7479 39.153C46.8289 39.2326 46.9106 39.3194 46.993 39.4134C47.074 39.493 47.1564 39.587 47.2403 39.6955C47.3386 39.8025 47.4391 39.9313 47.5418 40.0817L49.8408 43.3581C50.1994 43.8775 50.2853 44.2998 50.0987 44.6252C49.9106 44.9361 49.5562 45.1176 49.0355 45.1695L47.0178 45.3709C46.6852 45.4041 46.367 45.3628 46.0633 45.247C45.7596 45.1312 45.4877 44.8954 45.2477 44.5396L42.8924 40.9182L41.8076 41.0264L42.1475 44.4326C42.2413 45.3728 41.8181 45.8897 40.878 45.9836L39.1424 46.1568C38.1878 46.252 37.6636 45.8296 37.5697 44.8894L36.2945 32.1108ZM42.3942 37.0238C42.9438 36.969 43.3365 36.8056 43.5723 36.5338C43.8211 36.246 43.916 35.8056 43.8568 35.2126C43.8366 35.0101 43.7795 34.804 43.6855 34.5942C43.5916 34.3845 43.379 34.2304 43.0478 34.132C42.867 34.077 42.6747 34.0524 42.4707 34.0581C42.2798 34.048 42.0614 34.0551 41.8155 34.0797L41.1213 34.149L41.4179 37.1212L42.3942 37.0238ZM50.2356 30.7196C50.1418 29.7795 50.5722 29.2618 51.5268 29.1665L58.7948 28.4412C59.7349 28.3474 60.2519 28.7706 60.3457 29.7107L60.4539 30.7955C60.5478 31.7356 60.1246 32.2526 59.1845 32.3464L55.0623 32.7578L55.2507 34.6453L58.2013 34.3508C59.1559 34.2556 59.6801 34.678 59.7739 35.6181L59.8821 36.7029C59.976 37.6431 59.5456 38.1608 58.591 38.256L55.6404 38.5505L55.8396 40.5464L60.2221 40.1091C61.1767 40.0139 61.7009 40.4363 61.7947 41.3764L61.9029 42.4612C61.9968 43.4013 61.5664 43.919 60.6118 44.0143L53.0834 44.7656C52.1288 44.8608 51.6046 44.4384 51.5108 43.4983L50.2356 30.7196ZM65.5627 28.9271C65.7466 28.1346 66.2435 27.6979 67.0535 27.6171L69.4183 27.3811C70.2282 27.3003 70.8016 27.6301 71.1385 28.3707L76.6486 40.7706C76.8713 41.245 76.8893 41.645 76.7026 41.9703C76.5145 42.2813 76.1674 42.462 75.6612 42.5125L73.9038 42.6879C73.0939 42.7687 72.519 42.4244 72.1793 41.6548L71.7023 40.1686L67.2981 40.6081L67.1242 42.1593C66.9866 42.9764 66.5056 43.4261 65.6812 43.5084L63.9239 43.6838C63.4177 43.7343 63.0416 43.6257 62.7958 43.3581C62.5485 43.076 62.4872 42.6805 62.6116 42.1714L65.5627 28.9271ZM70.2993 36.6494L69.6055 34.5275C69.5072 34.2743 69.4053 33.9851 69.2998 33.6596C69.1929 33.3197 69.0888 33.0087 68.9876 32.7267C68.8806 32.3867 68.7737 32.0468 68.6667 31.7069L68.6233 31.7113C68.5857 32.0656 68.548 32.4199 68.5103 32.7743C68.4669 33.0708 68.4263 33.3962 68.3886 33.7505C68.364 34.089 68.3285 34.392 68.2821 34.6595L67.9779 36.8811L70.2993 36.6494ZM76.8465 28.0641C76.7527 27.1239 77.1831 26.6062 78.1377 26.511L79.8733 26.3378C80.8134 26.2439 81.3304 26.6671 81.4242 27.6072L82.4505 37.8909L87.115 37.4254C88.0696 37.3302 88.5938 37.7526 88.6876 38.6927L88.7959 39.7775C88.8897 40.7177 88.4593 41.2354 87.5047 41.3306L79.6943 42.11C78.7397 42.2053 78.2155 41.7829 78.1217 40.8427L76.8465 28.0641ZM88.796 26.8716C88.7021 25.9315 89.1325 25.4138 90.0871 25.3185L91.8228 25.1453C92.7629 25.0515 93.2799 25.4746 93.3737 26.4148L94.3999 36.6985L99.0645 36.233C100.019 36.1377 100.543 36.5602 100.637 37.5003L100.745 38.5851C100.839 39.5252 100.409 40.0429 99.4542 40.1382L91.6438 40.9176C90.6892 41.0128 90.165 40.5904 90.0712 39.6503L88.796 26.8716ZM102.732 33.4567L97.8067 26.2573C97.4684 25.7944 97.3773 25.3944 97.5336 25.0575C97.7043 24.7191 98.0645 24.5224 98.6141 24.4676L100.74 24.2554C101.507 24.1789 102.092 24.4784 102.495 25.154L103.547 27.1306C103.692 27.4083 103.83 27.694 103.961 27.9876C104.107 28.2798 104.229 28.5452 104.326 28.7839C104.441 29.0645 104.549 29.3386 104.649 29.6062L104.692 29.6019C104.737 29.3199 104.788 29.0299 104.846 28.732C104.894 28.4789 104.953 28.1954 105.024 27.8815C105.11 27.5663 105.196 27.2582 105.283 26.9574L105.923 24.8119C106.171 24.0714 106.678 23.6629 107.444 23.5864L109.57 23.3742C110.12 23.3194 110.505 23.4417 110.724 23.7411C110.959 24.0391 110.956 24.4484 110.716 24.9691L107.31 32.9999L107.797 37.8814C107.891 38.8215 107.468 39.3385 106.528 39.4323L104.77 39.6077C103.83 39.7015 103.313 39.2783 103.219 38.3382L102.732 33.4567ZM115.632 33.3964C114.692 33.4903 114.175 33.0671 114.081 32.127L114.07 32.0185C114.021 31.5267 114.144 31.069 114.437 30.6453C114.744 30.2056 115.082 29.7921 115.453 29.4045C115.838 29.0155 116.181 28.6526 116.484 28.3156C116.799 27.9628 116.94 27.62 116.907 27.2874C116.878 26.9981 116.755 26.7913 116.538 26.6668C116.321 26.5424 116.075 26.4939 115.801 26.5213C115.699 26.5314 115.571 26.5589 115.414 26.6037C115.273 26.647 115.126 26.7128 114.974 26.801C114.589 27.0439 114.207 27.1697 113.828 27.1783C113.449 27.1869 113.119 27.0226 112.837 26.6856L112.091 25.7959C111.807 25.4444 111.658 25.1161 111.642 24.8109C111.625 24.4912 111.792 24.1897 112.143 23.9063C112.535 23.5896 113.031 23.2846 113.63 22.9911C114.227 22.6831 114.952 22.4866 115.806 22.4014C116.413 22.3408 117.037 22.3735 117.678 22.4994C118.317 22.6109 118.908 22.8222 119.45 23.1333C120.007 23.4429 120.472 23.8567 120.845 24.3746C121.233 24.891 121.464 25.5252 121.539 26.2774C121.62 27.0873 121.521 27.7765 121.241 28.3448C120.976 28.9117 120.655 29.4186 120.276 29.8655C119.895 30.2978 119.517 30.6861 119.143 31.0302C118.783 31.3729 118.553 31.7099 118.455 32.0411L118.407 32.2211C118.341 32.5784 118.212 32.8322 118.023 32.9826C117.846 33.117 117.556 33.2045 117.151 33.2449L115.632 33.3964ZM114.644 36.234C114.551 35.2938 114.974 34.7768 115.914 34.683L117.107 34.5639C118.047 34.4701 118.564 34.8933 118.658 35.8334L118.753 36.788C118.847 37.7282 118.424 38.2451 117.484 38.339L116.291 38.458C115.35 38.5519 114.833 38.1287 114.74 37.1886L114.644 36.234Z" fill="white"/>
<path d="M15.8398 17.6105C15.6751 17.1303 15.6874 16.7419 15.877 16.4455C16.0665 16.149 16.4144 15.9755 16.9206 15.925L18.8081 15.7366C19.6615 15.6515 20.224 16.019 20.4958 16.8391L22.6095 24.4068C22.6586 24.6064 22.6998 24.7995 22.733 24.9861C22.7807 25.1712 22.8197 25.3426 22.8501 25.5002C22.8818 25.6724 22.9064 25.8452 22.9237 26.0188L22.9671 26.0144C22.9642 25.8394 22.9614 25.6644 22.9585 25.4894C22.9571 25.3289 22.9543 25.1539 22.95 24.9644C22.9601 24.7735 22.984 24.5739 23.0217 24.3656L24.03 16.4645C24.1646 15.6184 24.6514 15.1535 25.4903 15.0698L26.5751 14.9616C27.4285 14.8764 27.983 15.2374 28.2389 16.0445L30.7236 23.597C30.7872 23.7952 30.8363 23.9948 30.871 24.1959C30.9187 24.381 30.9649 24.5517 31.0097 24.7079C31.0415 24.88 31.0726 25.0449 31.1029 25.2026L31.1463 25.1982C31.129 25.0247 31.1189 24.8504 31.116 24.6754C31.1146 24.5148 31.1118 24.3398 31.1075 24.1504C31.1032 23.9609 31.1126 23.7627 31.1358 23.5559L31.8837 15.6808C31.975 14.839 32.4618 14.3741 33.3441 14.2861L35.1665 14.1042C35.6727 14.0537 36.048 14.155 36.2924 14.4082C36.5368 14.6613 36.6257 15.0396 36.559 15.5429L34.6493 28.6832C34.5132 29.5148 34.0257 29.9725 33.1868 30.0562L30.6484 30.3095C29.7951 30.3946 29.2332 30.0344 28.9629 29.2287L27.1005 23.7395C27.0369 23.5413 26.9812 23.3497 26.9335 23.1645C26.8859 22.9794 26.8396 22.8087 26.7948 22.6525C26.7486 22.4818 26.716 22.3025 26.6973 22.1144L26.6756 22.1166C26.6799 22.3061 26.6835 22.4883 26.6863 22.6633C26.6877 22.8239 26.6834 22.9996 26.6732 23.1905C26.663 23.3814 26.6464 23.5803 26.6232 23.7871L25.8605 29.5383C25.7403 30.383 25.2607 30.8471 24.4218 30.9308L21.8401 31.1885C21.0012 31.2722 20.4321 30.9127 20.1329 30.1099L15.8398 17.6105ZM37.8736 21.6127C37.7625 20.499 37.8538 19.4381 38.1476 18.4301C38.4415 17.422 38.9146 16.5276 39.5671 15.7467C40.2181 14.9513 41.0224 14.3014 41.9799 13.7968C42.9505 13.2763 44.0578 12.954 45.3017 12.8299C46.5311 12.7072 47.6729 12.8051 48.7272 13.1235C49.7946 13.426 50.7187 13.9035 51.4996 14.5559C52.2935 15.1925 52.9341 15.9758 53.4213 16.9059C53.923 17.8345 54.2294 18.8557 54.3405 19.9694C54.4545 21.112 54.3589 22.2026 54.0535 23.241C53.7611 24.2635 53.2901 25.1796 52.6405 25.9894C52.0054 26.7978 51.1954 27.463 50.2103 27.9849C49.2397 28.5054 48.1397 28.8269 46.9103 28.9496C45.6664 29.0738 44.5173 28.9766 43.463 28.6582C42.4231 28.3383 41.5048 27.8457 40.708 27.1802C39.9112 26.5147 39.2685 25.7097 38.7798 24.7651C38.2897 23.8061 37.9877 22.7553 37.8736 21.6127ZM42.6032 21.1407C42.6595 21.7048 42.799 22.224 43.0216 22.6985C43.2443 23.1729 43.5255 23.5758 43.8653 23.9071C44.2037 24.2239 44.5927 24.4626 45.0324 24.6232C45.4865 24.7824 45.9739 24.8361 46.4946 24.7841C47.0153 24.7321 47.4825 24.5833 47.8962 24.3375C48.3099 24.0917 48.6513 23.7801 48.9204 23.4026C49.188 23.0107 49.3841 22.5602 49.5086 22.0511C49.6331 21.5421 49.6672 21.0055 49.6109 20.4414C49.5575 19.9062 49.4209 19.4159 49.2012 18.9704C48.98 18.5104 48.7009 18.1292 48.364 17.8269C48.027 17.5245 47.6322 17.301 47.1796 17.1563C46.7254 16.9971 46.238 16.9434 45.7173 16.9954C45.1967 17.0474 44.7295 17.1962 44.3157 17.442C43.9151 17.6719 43.5795 17.9684 43.3089 18.3313C43.0384 18.6943 42.8401 19.1231 42.7142 19.6177C42.5868 20.0979 42.5498 20.6055 42.6032 21.1407ZM54.4214 13.7604C54.2566 13.2802 54.269 12.8918 54.4585 12.5954C54.648 12.2989 54.9959 12.1254 55.5021 12.0749L57.3897 11.8865C58.243 11.8014 58.8056 12.1689 59.0773 12.989L61.191 20.5567C61.2401 20.7563 61.2813 20.9494 61.3146 21.1359C61.3622 21.3211 61.4013 21.4925 61.4316 21.6501C61.4634 21.8223 61.4879 21.9951 61.5053 22.1687L61.5486 22.1643C61.5458 21.9893 61.5429 21.8143 61.5401 21.6393C61.5387 21.4788 61.5358 21.3038 61.5315 21.1143C61.5417 20.9234 61.5656 20.7238 61.6032 20.5155L62.6115 12.6144C62.7462 11.7683 63.233 11.3034 64.0719 11.2197L65.1566 11.1115C66.01 11.0263 66.5646 11.3873 66.8204 12.1944L69.3051 19.7469C69.3687 19.9451 69.4179 20.1447 69.4525 20.3458C69.5002 20.5309 69.5465 20.7016 69.5913 20.8578C69.6231 21.0299 69.6541 21.1948 69.6845 21.3525L69.7279 21.3481C69.7105 21.1746 69.7004 21.0003 69.6976 20.8253C69.6962 20.6647 69.6933 20.4897 69.689 20.3002C69.6847 20.1108 69.6942 19.9126 69.7173 19.7058L70.4653 11.8307C70.5566 10.9889 71.0434 10.524 71.9256 10.436L73.7481 10.2541C74.2543 10.2036 74.6296 10.3049 74.874 10.5581C75.1184 10.8112 75.2072 11.1895 75.1406 11.6928L73.2309 24.8331C73.0948 25.6647 72.6072 26.1224 71.7684 26.2061L69.23 26.4594C68.3766 26.5445 67.8148 26.1843 67.5445 25.3786L65.682 19.8894C65.6184 19.6912 65.5628 19.4996 65.5151 19.3144C65.4674 19.1293 65.4212 18.9586 65.3763 18.8024C65.3301 18.6317 65.2976 18.4524 65.2788 18.2643L65.2571 18.2665C65.2614 18.456 65.265 18.6382 65.2679 18.8132C65.2693 18.9738 65.2649 19.1495 65.2547 19.3404C65.2446 19.5313 65.2279 19.7302 65.2047 19.937L64.442 25.6882C64.3218 26.5328 63.8423 26.997 63.0034 27.0807L60.4216 27.3384C59.5827 27.4221 59.0137 27.0626 58.7144 26.2598L54.4214 13.7604Z" fill="white"/>
</svg>
